<?xml version="1.0" encoding="utf-8"?>
<!-- Generator: Adobe Illustrator 24.2.0, SVG Export Plug-In . SVG Version: 6.00 Build 0)  -->
<svg version="1.1" id="Capa_1" xmlns="http://www.w3.org/2000/svg" xmlns:xlink="http://www.w3.org/1999/xlink" x="0px" y="0px"
	 viewBox="0 0 32 32" style="enable-background:new 0 0 32 32;" xml:space="preserve">
<style type="text/css">
	.st0{fill:#FFBE00;}
	.st1{fill:#FFFFFF;}
	.st2{fill:#01043F;}
</style>
<circle class="st0" cx="16" cy="16" r="16"/>
<g>
	<g>
		<g>
			<g>
				<g>
					<path class="st1" d="M19.8,17.7c0.8,0,1.5-0.7,1.5-1.5c0-0.8-0.7-1.5-1.5-1.5c-0.8,0-1.5,0.7-1.5,1.5
						C18.3,17.1,19,17.7,19.8,17.7"/>
				</g>
				<path class="st2" d="M29.5,20.6L28,17.3c0.9-0.5,1.4-1.4,1.4-2.6c0-1.8-1.2-3.1-3.5-3.1h-3.8c-0.1,0-0.1,0.1-0.1,0.1v0.4
					c1.4,0.8,2.4,2.3,2.4,4s-1,3.2-2.4,4v0.4c0,0.1,0.1,0.1,0.1,0.1h2.5c0.1,0,0.1-0.1,0.1-0.1v-2.8c0-0.1,0-0.1,0.1-0.1h0.5
					l1.2,2.8c0,0.1,0.1,0.1,0.2,0.1h2.8C29.5,20.8,29.5,20.7,29.5,20.6 M26.6,14.8c0,0.5-0.3,0.8-0.9,0.8h-0.8c-0.1,0-0.1,0-0.1-0.1
					v-1.4c0-0.1,0-0.1,0.1-0.1h0.8C26.2,14,26.6,14.3,26.6,14.8"/>
				<path class="st2" d="M1.9,20.7c0,0.1,0.1,0.1,0.1,0.1h2.5c0.1,0,0.1-0.1,0.1-0.1v-1.9l0.7-1l1.4,2.9c0,0.1,0.1,0.1,0.2,0.1h2.9
					c0.1,0,0.1-0.1,0.1-0.1l-2.7-5.2l2.6-3.6c0.1-0.1,0-0.2-0.1-0.2H7c-0.1,0-0.2,0-0.2,0.1l-2.1,3.1v-3.1c0-0.1-0.1-0.1-0.1-0.1
					H2.1c-0.1,0-0.1,0.1-0.1,0.1V20.7z"/>
				<path class="st2" d="M17.6,12.2c-1.4,0.8-2.4,2.3-2.4,4s0.9,3.2,2.4,4v0.4c0,0.1-0.1,0.1-0.1,0.1h-2.5c-0.1,0-0.1-0.1-0.1-0.1
					v-3.2c0-0.1,0-0.1-0.1-0.1h-1.9c-0.1,0-0.1,0-0.1,0.1v3.2c0,0.1-0.1,0.1-0.1,0.1h-2.5c-0.1,0-0.1-0.1-0.1-0.1v-8.8
					c0-0.1,0.1-0.1,0.1-0.1h2.5c0.1,0,0.1,0.1,0.1,0.1v3c0,0.1,0,0.1,0.1,0.1h1.9c0.1,0,0.1,0,0.1-0.1v-3c0-0.1,0.1-0.1,0.1-0.1h2.5
					c0.1,0,0.1,0.1,0.1,0.1V12.2z"/>
				<path class="st2" d="M29,11.8c0-0.3,0.2-0.5,0.5-0.5c0.3,0,0.5,0.2,0.5,0.5c0,0.3-0.2,0.6-0.5,0.6C29.2,12.3,29,12.1,29,11.8
					 M30,11.8c0-0.3-0.2-0.5-0.5-0.5c-0.3,0-0.5,0.2-0.5,0.5c0,0.3,0.2,0.5,0.5,0.5C29.8,12.2,30,12,30,11.8 M29.3,12.1
					C29.3,12.1,29.3,12.1,29.3,12.1l0-0.6c0,0,0,0,0,0h0.2c0.1,0,0.2,0.1,0.2,0.2c0,0.1,0,0.1-0.1,0.2l0.1,0.2c0,0,0,0,0,0h-0.1
					c0,0,0,0,0,0l-0.1-0.2h-0.1c0,0,0,0,0,0L29.3,12.1C29.4,12.1,29.4,12.1,29.3,12.1L29.3,12.1L29.3,12.1z M29.7,11.6
					c0-0.1,0-0.1-0.1-0.1h-0.1c0,0,0,0,0,0v0.1c0,0,0,0,0,0h0.1C29.6,11.7,29.7,11.7,29.7,11.6"/>
			</g>
		</g>
	</g>
</g>
</svg>
